<?xml version="1.0" encoding="UTF-8"?>
<svg version="1.1" xmlns="http://www.w3.org/2000/svg" width="512" height="512">
<path d="M0 0 C1.06831055 0.5580835 1.06831055 0.5580835 2.15820312 1.12744141 C13.76611435 7.22844987 24.49852261 14.15374045 35 22 C35.91990723 22.68231689 35.91990723 22.68231689 36.85839844 23.37841797 C52.91608791 35.36693299 67.5543021 49.3049327 80 65 C80.79535156 65.99 81.59070313 66.98 82.41015625 68 C108.95767267 101.65770702 134.72123597 145.30420989 129.72753906 189.40625 C127.45972554 202.97458472 120.07463038 216.77181491 111 227 C110.2884375 227.83015625 109.576875 228.6603125 108.84375 229.515625 C105.50481453 233.33481831 102.15115322 236.90813891 98.29769897 240.20959473 C94.27128359 243.71645081 90.48195057 247.40184559 86.73291016 251.20117188 C86.05530136 251.88345352 85.37769257 252.56573517 84.67955017 253.26869202 C83.22225462 254.73641179 81.76606831 256.20523361 80.31090164 257.67506409 C78.00033436 260.00785056 75.68565417 262.33648216 73.36972046 264.66394043 C66.79000579 271.27706313 60.21448402 277.89430909 53.64941406 284.52197266 C49.62020039 288.5890109 45.58355847 292.64855096 41.54218674 296.70350647 C40.01252516 298.24117385 38.48563469 299.78160347 36.961689 301.32493591 C21.65546311 316.82251704 21.65546311 316.82251704 13 322 C12.39933212 322.36324875 11.79866425 322.7264975 11.17979431 323.10075378 C-6.50418366 333.27787473 -28.05602868 336.85335457 -48 332 C-57.69583807 329.18974643 -66.76438581 325.53310615 -75.80761719 321.08081055 C-77.62647565 320.18677466 -79.45306703 319.31033047 -81.28125 318.43554688 C-106.67096913 306.15920617 -106.67096913 306.15920617 -111.08984375 296.65625 C-113.09666368 290.79943646 -112.9505292 284.28043287 -110.375 278.625 C-107.60273961 273.86139764 -104.17396449 270.99246205 -99.125 268.6875 C-87.57810093 266.1471822 -79.59309065 270.98985595 -69.80834961 276.71362305 C-53.75976952 285.99882712 -37.15166603 294.99816206 -18.22265625 290.3125 C-7.32227047 286.88797487 0.54866841 278.74870735 8.47558594 270.84667969 C9.25744766 270.07474777 10.03930939 269.30281586 10.84486389 268.50749207 C13.39684869 265.98441535 15.9412561 263.45388595 18.484375 260.921875 C19.36135292 260.05055183 20.23833084 259.17922867 21.14188385 258.28150177 C25.30234394 254.14782362 29.45931398 250.01069966 33.61029124 245.86749816 C38.36730171 241.11945439 43.13712708 236.38479993 47.91849875 231.66129184 C52.0899306 227.53856702 56.24451045 223.39917955 60.39337921 219.25376129 C62.14735194 217.50580999 63.90628777 215.76282327 65.67040253 214.02510834 C82.77612241 197.26385641 82.77612241 197.26385641 88.375 174.625 C88.42398437 173.33851563 88.47296875 172.05203125 88.5234375 170.7265625 C87.92373297 159.64872143 81.69663605 148.62429663 76.9375 138.8125 C76.37168213 137.64485107 75.80586426 136.47720215 75.22290039 135.27416992 C64.24680186 113.02713821 49.9265988 92.9265988 32.38671875 75.38671875 C31.02063226 74.02063226 29.66821618 72.63977757 28.359375 71.21875 C8.21360855 49.70385379 -32.44227105 21.68614445 -62.78588867 20.65527344 C-74.85877055 20.49020151 -82.99479286 23.07348534 -92.27709961 31.13574219 C-93.1788827 31.91510698 -93.1788827 31.91510698 -94.09888363 32.71021652 C-102.19922549 39.81051004 -109.76948927 47.46100901 -117.37890625 55.078125 C-119.00580204 56.70112294 -120.63291709 58.32390113 -122.26023865 59.94647217 C-125.64278541 63.32161753 -129.02151094 66.70053179 -132.39770508 70.08203125 C-136.71304208 74.40319689 -141.03972553 78.71280399 -145.36950779 83.01948929 C-148.72140003 86.35663077 -152.06631985 89.70069346 -155.40928459 93.04677582 C-157.00206717 94.63904725 -158.59719499 96.22897646 -160.19476509 97.8164444 C-162.42430133 100.03358889 -164.6440175 102.26013808 -166.86157227 104.48925781 C-167.83954773 105.45576767 -167.83954773 105.45576767 -168.83728027 106.44180298 C-177.55852415 115.26344845 -182.2434939 124.35358372 -182.4375 136.875 C-182.36967665 143.96785106 -181.06785053 149.62300733 -178 156 C-177.72091797 156.58716797 -177.44183594 157.17433594 -177.15429688 157.77929688 C-172.95801871 166.5549529 -168.37947644 175.13591741 -163.76171875 183.6953125 C-163.18035156 184.78585938 -162.59898437 185.87640625 -162 187 C-161.17048828 188.546875 -161.17048828 188.546875 -160.32421875 190.125 C-157.87109376 195.45095867 -157.17382178 201.32174298 -158.875 207 C-164.01502469 217.90308676 -175.6559576 226.52372841 -184.29058647 234.64267159 C-188.55844665 238.65738184 -192.81221546 242.68696124 -197.06567383 246.71691895 C-198.42195814 248.00164943 -198.42195814 248.00164943 -199.80564213 249.31233406 C-206.47215252 255.63596768 -213.10051869 261.99810554 -219.70581055 268.38562012 C-220.18687944 268.85079444 -220.66794834 269.31596876 -221.16359508 269.79523927 C-226.13252244 274.60125738 -231.09623805 279.41262434 -236.05555958 284.22855321 C-238.59692846 286.6960323 -241.13961102 289.16215351 -243.68310547 291.62744141 C-244.18914877 292.11796751 -244.69519207 292.60849362 -245.21657002 293.11388415 C-253.36815957 301.00968928 -261.61355407 308.80004843 -269.89879155 316.55521768 C-278.46308221 324.57617105 -286.910726 332.70777944 -295.26730919 340.94493532 C-299.94113996 345.54578146 -304.65454699 350.08493994 -309.50085449 354.50480652 C-327.81507111 371.26389614 -342.40693284 385.85896487 -343.74256039 411.61206579 C-344.22688049 424.46688665 -343.24458978 437.2117632 -342 450 C-326.16 450 -310.32 450 -294 450 C-294.23660441 436.58238556 -294.23660441 436.58238556 -294.54052734 423.16625977 C-294.79155448 406.5979851 -294.79155448 406.5979851 -289.64111328 400.45483398 C-282.65505241 394.2617461 -275.25850917 393.84307496 -266.3203125 393.90234375 C-265.50754852 393.9037587 -264.69478455 393.90517365 -263.85739136 393.90663147 C-261.27988899 393.91219665 -258.7024758 393.9247426 -256.125 393.9375 C-254.36979293 393.9425195 -252.61458448 393.94708162 -250.859375 393.95117188 C-246.57288268 393.96215466 -242.28645643 393.97939508 -238 394 C-238.0314209 392.77482666 -238.0628418 391.54965332 -238.09521484 390.28735352 C-238.20444356 385.70852321 -238.2729237 381.12980621 -238.32958984 376.55004883 C-238.35962136 374.57426539 -238.40046024 372.5986137 -238.45263672 370.62329102 C-238.96279276 350.80222831 -238.96279276 350.80222831 -233.64111328 344.45483398 C-227.49632383 339.00752658 -221.18121302 337.88567737 -213.12158203 337.85473633 C-211.98665314 337.84835648 -210.85172424 337.84197662 -209.68240356 337.83540344 C-207.86348099 337.83373421 -207.86348099 337.83373421 -206.0078125 337.83203125 C-204.74790497 337.82870285 -203.48799744 337.82537445 -202.18991089 337.82194519 C-199.52875222 337.81688979 -196.86769574 337.81410296 -194.20654297 337.81469727 C-190.81526245 337.81479879 -187.42419176 337.80114665 -184.03296089 337.78392506 C-180.7745862 337.77005981 -177.51621266 337.77071452 -174.2578125 337.76953125 C-173.04924591 337.76234573 -171.84067932 337.75516022 -170.5954895 337.74775696 C-161.22639043 337.77301494 -153.09331214 338.31971616 -146 345 C-141.49444446 350.42977206 -141.2700014 355.58504389 -141.4921875 362.546875 C-142.25400755 367.72725132 -144.08060723 371.50472063 -148 375 C-153.93843899 378.86371381 -158.99336496 379.55475359 -165.96875 379.390625 C-166.88966431 379.38496521 -167.81057861 379.37930542 -168.75939941 379.37347412 C-171.67348307 379.35125236 -174.58629397 379.30108383 -177.5 379.25 C-179.48696129 379.2299166 -181.47394204 379.21166906 -183.4609375 379.1953125 C-188.30777499 379.1514343 -193.15367242 379.08250689 -198 379 C-197.9685791 380.25546631 -197.9371582 381.51093262 -197.90478516 382.80444336 C-197.795582 387.49509676 -197.72708517 392.18563954 -197.67041016 396.87719727 C-197.64037296 398.90147849 -197.59952982 400.92563104 -197.54736328 402.94946289 C-197.47396855 405.87158055 -197.44041316 408.79196748 -197.4140625 411.71484375 C-197.38309479 412.60896469 -197.35212708 413.50308563 -197.32022095 414.42430115 C-197.31659214 421.3123035 -199.23443182 425.97404046 -204 431 C-209.50258415 435.32021564 -215.20327605 435.54981445 -221.96875 435.390625 C-222.88966431 435.38496521 -223.81057861 435.37930542 -224.75939941 435.37347412 C-227.67348307 435.35125236 -230.58629397 435.30108383 -233.5 435.25 C-235.48696129 435.2299166 -237.47394204 435.21166906 -239.4609375 435.1953125 C-244.30777499 435.1514343 -249.15367242 435.08250689 -254 435 C-253.9685791 436.25546631 -253.9371582 437.51093262 -253.90478516 438.80444336 C-253.795582 443.49509676 -253.72708517 448.18563954 -253.67041016 452.87719727 C-253.64037296 454.90147849 -253.59952982 456.92563104 -253.54736328 458.94946289 C-253.47396855 461.87158055 -253.44041316 464.79196748 -253.4140625 467.71484375 C-253.38309479 468.60896469 -253.35212708 469.50308563 -253.32022095 470.42430115 C-253.3171125 476.32457974 -254.68917893 480.08970239 -257.92684937 485.00221252 C-263.81592338 490.67720696 -270.05268581 491.58922343 -277.9609375 491.51757812 C-279.40644989 491.52809204 -279.40644989 491.52809204 -280.88116455 491.53881836 C-284.04607513 491.55633015 -287.21008135 491.54479952 -290.375 491.53125 C-292.58642752 491.53394686 -294.79785387 491.5378309 -297.00927734 491.54284668 C-301.63585744 491.54873252 -306.26212787 491.540208 -310.88867188 491.52148438 C-316.80679984 491.49869574 -322.7242021 491.51182368 -328.64230347 491.53577423 C-333.20635404 491.55025674 -337.77023372 491.5456149 -342.33428955 491.53526306 C-344.51589037 491.53260257 -346.69750691 491.53584157 -348.87908936 491.54518127 C-351.93282934 491.55538704 -354.98540854 491.53978884 -358.0390625 491.51757812 C-358.93280579 491.52567505 -359.82654907 491.53377197 -360.74737549 491.54211426 C-366.57973777 491.46387815 -371.31945122 490.66475189 -376 487 C-381.5652534 481.10580611 -382.88228704 475.67018337 -382.77636719 467.7578125 C-382.79213806 466.2852298 -382.79213806 466.2852298 -382.80822754 464.78289795 C-382.83446748 461.56293615 -382.8172126 458.34497914 -382.796875 455.125 C-382.80092118 452.87255476 -382.80674797 450.62011209 -382.81427002 448.36767578 C-382.82309489 443.65697172 -382.810326 438.94695232 -382.78222656 434.23632812 C-382.74804217 428.21377053 -382.76773642 422.19281741 -382.80366135 416.1703186 C-382.82539668 411.52209498 -382.81841744 406.87424849 -382.80289459 402.22601318 C-382.79890696 400.00616259 -382.80375145 397.78627718 -382.81777191 395.56646729 C-382.83310168 392.45745839 -382.80966162 389.35100704 -382.77636719 386.2421875 C-382.78851257 385.33490906 -382.80065796 384.42763062 -382.81317139 383.49285889 C-382.6087963 373.13323185 -375.88788201 366.42752578 -368.81788635 359.49076843 C-367.76783233 358.44216124 -367.76783233 358.44216124 -366.69656509 357.37237006 C-364.37060365 355.05312584 -362.03411676 352.74479396 -359.69750977 350.4362793 C-358.0194636 348.76727281 -356.34211866 347.09756105 -354.66542053 345.42720032 C-351.06503721 341.84303178 -347.4601435 338.26348502 -343.85174751 334.68738365 C-338.63347706 329.51506205 -333.42530714 324.33267446 -328.22049426 319.14682124 C-319.77206967 310.72928801 -311.31877354 302.31666819 -302.8605957 293.90893555 C-302.35532189 293.40666979 -301.85004808 292.90440404 -301.32946294 292.38691811 C-295.6835845 286.77490776 -290.03627587 281.16434044 -284.387146 275.55560303 C-283.8781699 275.05026046 -283.3691938 274.54491789 -282.84479418 274.02426191 C-282.08198769 273.26690135 -282.08198769 273.26690135 -281.30377096 272.49424058 C-280.27811386 271.47589906 -279.25245909 270.45755519 -278.22680664 269.43920898 C-277.72002833 268.93604586 -277.21325002 268.43288274 -276.69111479 267.91447224 C-268.25092025 259.53396622 -259.82036537 251.14383743 -251.39749187 242.74592334 C-245.74112002 237.10719711 -240.07300525 231.48058952 -234.39656556 225.86206186 C-230.87828656 222.37459492 -227.37038243 218.87683837 -223.86537743 215.37603569 C-222.23259558 213.74944545 -220.59548287 212.12718986 -218.95386505 210.50951767 C-216.72204856 208.30907146 -214.50593927 206.09394542 -212.29322815 203.87431335 C-211.63294682 203.23064259 -210.97266548 202.58697182 -210.29237562 201.92379588 C-209.70588962 201.32920473 -209.11940361 200.73461357 -208.5151453 200.12200451 C-208.00159837 199.6119824 -207.48805143 199.10196028 -206.95894247 198.57648295 C-205.78153439 197.01235926 -205.78153439 197.01235926 -206.27082771 194.96379501 C-207.21678732 192.4161519 -208.36603942 190.02860219 -209.58203125 187.59765625 C-210.10216797 186.54126953 -210.62230469 185.48488281 -211.15820312 184.39648438 C-212.244757 182.20669988 -213.33576792 180.01912018 -214.43164062 177.83398438 C-224.33755315 157.6444431 -227.85421856 134.63647272 -221.390625 112.7421875 C-215.67016093 97.34835442 -207.10524895 85.80060882 -195.49536133 74.20483398 C-194.28135147 72.98074829 -194.28135147 72.98074829 -193.04281616 71.73193359 C-190.39444429 69.06473187 -187.73875435 66.40497542 -185.08203125 63.74609375 C-183.21874376 61.87636885 -181.35560233 60.00649839 -179.49259949 58.13648987 C-175.59723731 54.2283973 -171.69704719 50.32516655 -167.79467773 46.42407227 C-163.31281256 41.94340745 -158.84221871 37.45171248 -154.37677747 32.95468467 C-150.04583855 28.59422974 -145.70368216 24.24510625 -141.35736656 19.89998055 C-139.52550801 18.06577784 -137.69685415 16.22836823 -135.87162209 14.38757133 C-93.16342248 -28.65067109 -51.40267475 -27.13751512 0 0 Z " fill="#000000" transform="translate(382,21)"/>
<path d="M0 0 C0.62132812 0.391875 1.24265625 0.78375 1.8828125 1.1875 C2.50414062 1.538125 3.12546875 1.88875 3.765625 2.25 C10.62646489 6.5268872 14.82186485 13.48012042 16.8828125 21.1875 C17.87716863 32.24104028 17.21330548 41.82817539 10.2578125 50.9375 C2.9539659 58.64205639 -5.61858694 61.78175698 -16.1171875 62.1875 C-25.13431096 61.80174071 -32.83968402 58.5455591 -39.19140625 52.07421875 C-47.10944481 42.46301471 -48.20613017 33.3352605 -47.1171875 21.1875 C-44.85047776 11.68194302 -39.4871358 5.8022062 -31.49609375 0.484375 C-22.44132329 -4.45188739 -9.16144075 -5.01615007 0 0 Z " fill="#000000" transform="translate(379.1171875,110.8125)"/>
</svg>
