<?xml version="1.0" standalone="no"?>
<!DOCTYPE svg PUBLIC "-//W3C//DTD SVG 20010904//EN"
 "http://www.w3.org/TR/2001/REC-SVG-20010904/DTD/svg10.dtd">
<svg version="1.0" xmlns="http://www.w3.org/2000/svg"
 width="512.000000pt" height="512.000000pt" viewBox="0 0 512.000000 512.000000"
 preserveAspectRatio="xMidYMid meet">

<g transform="translate(0.000000,512.000000) scale(0.100000,-0.100000)"
fill="#000000" stroke="none">
<path d="M3551 4039 c-81 -32 -134 -111 -134 -198 0 -34 7 -70 18 -91 9 -19
132 -151 273 -292 l256 -258 -1253 0 c-961 0 -1263 -3 -1295 -12 -137 -41
-181 -236 -79 -349 67 -74 -43 -70 1669 -67 l1530 3 49 26 c40 20 55 35 77 80
34 67 37 142 9 197 -29 55 -917 938 -963 957 -41 17 -120 19 -157 4z"/>
<path d="M588 2340 c-91 -27 -158 -115 -158 -208 0 -29 7 -67 16 -85 23 -46
910 -934 958 -959 31 -16 53 -19 102 -16 77 5 131 38 170 104 33 57 37 139 9
194 -9 19 -132 151 -273 293 l-256 257 1260 0 1260 0 55 28 c45 22 59 36 82
81 44 88 33 182 -30 252 -67 74 42 69 -1652 68 -834 0 -1528 -4 -1543 -9z"/>
</g>
</svg>
