<?xml version="1.0" standalone="no"?>
<!DOCTYPE svg PUBLIC "-//W3C//DTD SVG 20010904//EN"
 "http://www.w3.org/TR/2001/REC-SVG-20010904/DTD/svg10.dtd">
<svg version="1.0" xmlns="http://www.w3.org/2000/svg"
 width="512.000000pt" height="512.000000pt" viewBox="0 0 512.000000 512.000000"
 preserveAspectRatio="xMidYMid meet">

<g transform="translate(0.000000,512.000000) scale(0.100000,-0.100000)"
fill="#000000" stroke="none">
<path d="M1855 4624 c-91 -47 -95 -63 -95 -369 l0 -255 -417 0 c-378 0 -421
-2 -452 -18 -50 -25 -74 -63 -78 -124 -5 -63 23 -119 76 -155 l34 -23 1634 0
c1488 0 1638 1 1669 16 45 22 76 66 81 119 7 57 -10 104 -53 146 l-35 34 -430
3 -429 3 0 255 c0 234 -2 258 -20 294 -11 21 -34 49 -52 62 l-33 23 -685 3
c-607 2 -688 0 -715 -14z m1185 -464 l0 -160 -480 0 -480 0 0 160 0 160 480 0
480 0 0 -160z"/>
<path d="M1230 3353 c-37 -14 -74 -49 -91 -87 -18 -39 -19 -91 -19 -1196 0
-1006 2 -1163 15 -1215 46 -177 190 -318 366 -360 96 -22 2022 -22 2118 0 130
31 241 115 315 238 68 115 66 69 66 1343 0 1145 0 1148 -21 1191 -58 120 -219
121 -279 3 -20 -38 -20 -63 -20 -1188 l0 -1149 -23 -43 c-16 -30 -37 -51 -67
-67 l-43 -23 -985 0 c-976 0 -986 0 -1028 21 -26 12 -53 36 -66 57 l-23 37 -5
1170 -5 1170 -23 33 c-40 55 -126 86 -182 65z"/>
<path d="M2166 3017 c-22 -12 -49 -38 -60 -57 -21 -34 -21 -47 -21 -720 l0
-685 23 -36 c57 -92 208 -92 269 0 l23 34 0 687 0 687 -23 34 c-52 78 -135
100 -211 56z"/>
<path d="M2799 3017 c-18 -12 -44 -38 -56 -56 l-23 -34 0 -686 c0 -667 1 -687
20 -719 60 -98 201 -97 274 1 21 28 21 34 21 715 l0 687 -24 38 c-45 73 -146
99 -212 54z"/>
</g>
</svg>
