<?xml version="1.0" encoding="UTF-8"?>
<svg version="1.1" xmlns="http://www.w3.org/2000/svg" width="512" height="512">
<path d="M0 0 C0.8976709 0.2475 1.7953418 0.495 2.72021484 0.75 C22.47659662 6.40496566 41.17620947 14.71151293 57 28 C58.17182237 28.95839768 59.34370044 29.91672727 60.515625 30.875 C90.12016943 55.37259291 108.16464422 89.97495848 113 128 C113.74633264 144.88747215 114.39723862 162.58141323 110 179 C109.71793701 180.12873535 109.71793701 180.12873535 109.43017578 181.28027344 C103.52750842 204.65615104 92.63104568 224.73173044 77 243 C76.31808594 243.80566406 75.63617188 244.61132812 74.93359375 245.44140625 C68.09891936 253.34608838 60.29228944 259.68480735 52 266 C54.47321354 267.64880903 56.50415358 268.70594292 59.21875 269.8125 C83.23574855 279.75914306 104.54595286 291.99922554 125 308 C125.53915039 308.41910645 126.07830078 308.83821289 126.63378906 309.27001953 C142.28841766 321.5729392 157.1170208 336.19952413 168.79052734 352.34619141 C170.05386046 354.07364771 171.35955472 355.76178517 172.67578125 357.44921875 C180.55029174 367.66555476 186.93767986 378.63082125 193 390 C193.66346436 391.24064209 193.66346436 391.24064209 194.34033203 392.50634766 C213.21950027 428.41182148 221.75187646 468.64929689 221 509 C207.47 509 193.94 509 180 509 C179.67 502.4 179.34 495.8 179 489 C178.518744 484.66129205 178.00710098 480.42240506 177.3125 476.125 C177.13879883 475.03622559 176.96509766 473.94745117 176.78613281 472.82568359 C171.08830074 438.88062683 157.1379504 406.22555745 136 379 C135.22011719 377.99066406 134.44023437 376.98132813 133.63671875 375.94140625 C116.84276323 354.91167509 97.26656859 337.57216501 74 324 C72.39125 323.01773438 72.39125 323.01773438 70.75 322.015625 C23.06099948 293.53469413 -36.2259514 287.60778267 -89.56738281 301.01782227 C-142.00703079 315.00452667 -190.01936581 349.27430612 -217.875 396.22265625 C-232.75417736 422.44284722 -243.34337337 448.79292996 -247.8125 478.75 C-247.92440674 479.49121094 -248.03631348 480.23242188 -248.15161133 480.99609375 C-249.38780819 490.30857917 -249.52883314 499.57666277 -250 509 C-263.53 509 -277.06 509 -291 509 C-292.18377702 445.47063331 -268.94217427 382.61881193 -225.09765625 336.19140625 C-224.06613782 335.12660185 -223.03346577 334.06291448 -222 333 C-221.33983887 332.31405762 -220.67967773 331.62811523 -219.99951172 330.92138672 C-211.05881338 321.66187587 -202.07166576 312.80604549 -191.65917969 305.21044922 C-190.00221168 304.00161352 -188.36421498 302.76998723 -186.7265625 301.53515625 C-167.05888012 286.89927917 -145.12371452 275.15121662 -122 267 C-127.51848645 261.297564 -133.38360478 255.85419533 -139.61328125 250.9375 C-143.22780128 248.00329061 -146.04413875 244.58268786 -149 241 C-149.76570312 240.08347656 -150.53140625 239.16695312 -151.3203125 238.22265625 C-163.89212551 222.59656265 -172.63433173 204.63918666 -178.25 185.4375 C-178.6197998 184.18005981 -178.6197998 184.18005981 -178.99707031 182.8972168 C-182.4830022 170.42524681 -183.37743311 158.12970547 -183.3125 145.25 C-183.31067719 144.49921173 -183.30885437 143.74842346 -183.30697632 142.97488403 C-183.26222857 132.03238453 -182.82734439 121.62808974 -180 111 C-179.82839355 110.31808594 -179.65678711 109.63617188 -179.47998047 108.93359375 C-173.73132949 86.28832697 -163.1270357 65.7722301 -148 48 C-147.16339844 47.01 -146.32679688 46.02 -145.46484375 45 C-139.84059034 38.58246837 -133.78959173 33.15506039 -127 28 C-125.96359375 27.19820312 -124.9271875 26.39640625 -123.859375 25.5703125 C-90.14225068 0.08186109 -41.31760004 -11.41025417 0 0 Z M-112 70 C-112.80179688 70.80179688 -113.60359375 71.60359375 -114.4296875 72.4296875 C-136.38511726 95.60064278 -142.99957973 124.44877476 -142.17919922 155.56201172 C-140.76750856 182.64570097 -125.89991967 206.87826834 -106.93359375 225.37109375 C-91.22591983 239.44734482 -69.98433894 249.46343156 -49 252 C-47.8965625 252.1340625 -46.793125 252.268125 -45.65625 252.40625 C-16.43156523 255.15386994 11.92139332 245.82837414 34.46484375 227.21484375 C54.99931216 209.27486904 70.31456895 183.49455918 72.22119141 155.78540039 C73.36388466 122.40660118 65.17694629 95.14843417 42.44140625 70.19140625 C26.01423229 53.00128662 2.73602312 40.86918961 -21 38 C-22.65515625 37.79890625 -22.65515625 37.79890625 -24.34375 37.59375 C-57.42319968 34.48371627 -88.72641494 46.72641494 -112 70 Z " fill="#000000" transform="translate(291,3)"/>
</svg>
